<mxfile host="app.diagrams.net" modified="2021-12-08T20:44:16.363Z" agent="5.0 (Windows NT 10.0; Win64; x64) AppleWebKit/537.36 (KHTML, like Gecko) Chrome/96.0.4664.93 Safari/537.36" etag="2oeZDadoJPrMCEBfe7rZ" version="15.8.8" type="github">
  <diagram id="zKMatKK95ejokJTigyKX" name="Page-1">
    <mxGraphModel dx="1278" dy="714" grid="1" gridSize="10" guides="1" tooltips="1" connect="1" arrows="1" fold="1" page="1" pageScale="1" pageWidth="827" pageHeight="1169" math="0" shadow="0">
      <root>
        <mxCell id="0" />
        <mxCell id="1" parent="0" />
        <mxCell id="yI1a533Czw77h9ZBDeVI-3" value="" style="edgeStyle=orthogonalEdgeStyle;rounded=0;orthogonalLoop=1;jettySize=auto;html=1;" edge="1" parent="1" source="yI1a533Czw77h9ZBDeVI-1" target="yI1a533Czw77h9ZBDeVI-2">
          <mxGeometry relative="1" as="geometry" />
        </mxCell>
        <mxCell id="yI1a533Czw77h9ZBDeVI-1" value="Actor" style="shape=umlActor;verticalLabelPosition=bottom;verticalAlign=top;html=1;outlineConnect=0;" vertex="1" parent="1">
          <mxGeometry x="20" y="140" width="30" height="60" as="geometry" />
        </mxCell>
        <mxCell id="yI1a533Czw77h9ZBDeVI-5" value="" style="edgeStyle=orthogonalEdgeStyle;rounded=0;orthogonalLoop=1;jettySize=auto;html=1;" edge="1" parent="1" source="yI1a533Czw77h9ZBDeVI-2" target="yI1a533Czw77h9ZBDeVI-4">
          <mxGeometry relative="1" as="geometry" />
        </mxCell>
        <mxCell id="yI1a533Czw77h9ZBDeVI-2" value="" style="whiteSpace=wrap;html=1;verticalAlign=top;" vertex="1" parent="1">
          <mxGeometry x="85" y="140" width="120" height="60" as="geometry" />
        </mxCell>
        <mxCell id="yI1a533Czw77h9ZBDeVI-7" value="" style="edgeStyle=orthogonalEdgeStyle;rounded=0;orthogonalLoop=1;jettySize=auto;html=1;" edge="1" parent="1" source="yI1a533Czw77h9ZBDeVI-4" target="yI1a533Czw77h9ZBDeVI-6">
          <mxGeometry relative="1" as="geometry" />
        </mxCell>
        <mxCell id="yI1a533Czw77h9ZBDeVI-4" value="" style="whiteSpace=wrap;html=1;verticalAlign=top;" vertex="1" parent="1">
          <mxGeometry x="285" y="140" width="120" height="60" as="geometry" />
        </mxCell>
        <mxCell id="yI1a533Czw77h9ZBDeVI-11" value="" style="edgeStyle=orthogonalEdgeStyle;rounded=0;orthogonalLoop=1;jettySize=auto;html=1;" edge="1" parent="1" source="yI1a533Czw77h9ZBDeVI-6" target="yI1a533Czw77h9ZBDeVI-10">
          <mxGeometry relative="1" as="geometry" />
        </mxCell>
        <mxCell id="yI1a533Czw77h9ZBDeVI-6" value="" style="whiteSpace=wrap;html=1;verticalAlign=top;" vertex="1" parent="1">
          <mxGeometry x="485" y="140" width="120" height="60" as="geometry" />
        </mxCell>
        <mxCell id="yI1a533Czw77h9ZBDeVI-14" value="" style="edgeStyle=orthogonalEdgeStyle;rounded=0;orthogonalLoop=1;jettySize=auto;html=1;" edge="1" parent="1" source="yI1a533Czw77h9ZBDeVI-10" target="yI1a533Czw77h9ZBDeVI-13">
          <mxGeometry relative="1" as="geometry" />
        </mxCell>
        <mxCell id="yI1a533Czw77h9ZBDeVI-10" value="" style="whiteSpace=wrap;html=1;verticalAlign=top;" vertex="1" parent="1">
          <mxGeometry x="485" y="280" width="120" height="60" as="geometry" />
        </mxCell>
        <mxCell id="yI1a533Czw77h9ZBDeVI-12" value="" style="shape=cylinder3;whiteSpace=wrap;html=1;boundedLbl=1;backgroundOutline=1;size=15;" vertex="1" parent="1">
          <mxGeometry x="380" y="330" width="60" height="80" as="geometry" />
        </mxCell>
        <mxCell id="yI1a533Czw77h9ZBDeVI-13" value="" style="whiteSpace=wrap;html=1;verticalAlign=top;" vertex="1" parent="1">
          <mxGeometry x="485" y="420" width="120" height="60" as="geometry" />
        </mxCell>
      </root>
    </mxGraphModel>
  </diagram>
</mxfile>
